<svg width="30" height="30" viewBox="0 0 30 30" fill="none" xmlns="http://www.w3.org/2000/svg">
<path d="M16.7493 8.27564L11.4141 3.51365L29.1579 3.51318C29.623 3.51317 30 3.8902 30 4.35529V7.43308C30 7.89815 29.623 8.27517 29.1579 8.27519L16.7493 8.27564Z" fill="#246DD3"/>
<path d="M21.3808 17.9734V13.2114H27.4144C27.8795 13.2114 28.2565 13.5885 28.2565 14.0535V17.1313C28.2565 17.5964 27.8795 17.9734 27.4144 17.9734H21.3808Z" fill="#246DD3"/>
<path d="M11.4141 27.845L16.7493 23.083H29.158C29.623 23.083 30.0001 23.46 30.0001 23.9251V27.0029C30.0001 27.468 29.623 27.845 29.158 27.845H11.4141Z" fill="#246DD3"/>
<path d="M25.6686 15.5827C25.6686 22.6482 19.9225 28.376 12.8343 28.376C5.74611 28.376 0 22.6482 0 15.5827C0 8.51717 5.74611 2.78943 12.8343 2.78943C19.9225 2.78943 25.6686 8.51717 25.6686 15.5827ZM4.9027 15.5827C4.9027 19.9492 8.45379 23.4889 12.8343 23.4889C17.2148 23.4889 20.7659 19.9492 20.7659 15.5827C20.7659 11.2162 17.2148 7.67646 12.8343 7.67646C8.45379 7.67646 4.9027 11.2162 4.9027 15.5827Z" fill="#2595FF"/>
</svg>
