<svg width="132" height="44" viewBox="0 0 132 44" fill="none" xmlns="http://www.w3.org/2000/svg">
<path d="M16.7493 15.2756L11.4141 10.5136L29.1579 10.5132C29.623 10.5132 30 10.8902 30 11.3553V14.4331C30 14.8982 29.623 15.2752 29.1579 15.2752L16.7493 15.2756Z" fill="#246DD3"/>
<path d="M21.3808 24.9734V20.2114H27.4144C27.8795 20.2114 28.2565 20.5885 28.2565 21.0535V24.1313C28.2565 24.5964 27.8795 24.9734 27.4144 24.9734H21.3808Z" fill="#246DD3"/>
<path d="M11.4141 34.845L16.7493 30.083H29.158C29.623 30.083 30.0001 30.46 30.0001 30.9251V34.0029C30.0001 34.468 29.623 34.845 29.158 34.845H11.4141Z" fill="#246DD3"/>
<path d="M25.6686 22.5827C25.6686 29.6482 19.9225 35.376 12.8343 35.376C5.74611 35.376 0 29.6482 0 22.5827C0 15.5172 5.74611 9.78943 12.8343 9.78943C19.9225 9.78943 25.6686 15.5172 25.6686 22.5827ZM4.9027 22.5827C4.9027 26.9492 8.45379 30.4889 12.8343 30.4889C17.2148 30.4889 20.7659 26.9492 20.7659 22.5827C20.7659 18.2162 17.2148 14.6765 12.8343 14.6765C8.45379 14.6765 4.9027 18.2162 4.9027 22.5827Z" fill="#2595FF"/>
<path d="M47.078 28V17.57H53.952V19.04H48.73V22.036H53.672V23.506H48.73V26.53H53.952V28H47.078ZM55.5702 24.906V23.506H61.1702V24.906H55.5702ZM63.4159 28V17.57H64.9559L68.8759 23.002H68.1059L71.9559 17.57H73.4959V28H71.8579V19.516L72.4739 19.684L68.5399 25.06H68.3719L64.5219 19.684L65.0679 19.516V28H63.4159ZM79.0542 28.168C78.2982 28.168 77.6262 27.9953 77.0382 27.65C76.4596 27.2953 76.0069 26.8193 75.6802 26.222C75.3536 25.6153 75.1902 24.9387 75.1902 24.192C75.1902 23.4267 75.3536 22.75 75.6802 22.162C76.0162 21.574 76.4642 21.112 77.0242 20.776C77.5842 20.4307 78.2189 20.258 78.9282 20.258C79.4976 20.258 80.0062 20.356 80.4542 20.552C80.9022 20.748 81.2802 21.0187 81.5882 21.364C81.8962 21.7 82.1296 22.0873 82.2882 22.526C82.4562 22.9647 82.5402 23.4313 82.5402 23.926C82.5402 24.0473 82.5356 24.1733 82.5262 24.304C82.5169 24.4347 82.4982 24.556 82.4702 24.668H76.4362V23.408H81.5742L80.8182 23.982C80.9116 23.5247 80.8789 23.1187 80.7202 22.764C80.5709 22.4 80.3376 22.1153 80.0202 21.91C79.7122 21.6953 79.3482 21.588 78.9282 21.588C78.5082 21.588 78.1349 21.6953 77.8082 21.91C77.4816 22.1153 77.2296 22.414 77.0522 22.806C76.8749 23.1887 76.8049 23.6553 76.8422 24.206C76.7956 24.7193 76.8656 25.1673 77.0522 25.55C77.2482 25.9327 77.5189 26.2313 77.8642 26.446C78.2189 26.6607 78.6202 26.768 79.0682 26.768C79.5256 26.768 79.9129 26.6653 80.2302 26.46C80.5569 26.2547 80.8136 25.9887 81.0002 25.662L82.2882 26.292C82.1389 26.6467 81.9056 26.9687 81.5882 27.258C81.2802 27.538 80.9069 27.762 80.4682 27.93C80.0389 28.0887 79.5676 28.168 79.0542 28.168ZM86.8842 28.168C86.1095 28.168 85.4282 27.9767 84.8402 27.594C84.2615 27.2113 83.8555 26.698 83.6222 26.054L84.8402 25.48C85.0455 25.9093 85.3255 26.25 85.6802 26.502C86.0442 26.754 86.4455 26.88 86.8842 26.88C87.2575 26.88 87.5608 26.796 87.7942 26.628C88.0275 26.46 88.1442 26.2313 88.1442 25.942C88.1442 25.7553 88.0928 25.606 87.9902 25.494C87.8875 25.3727 87.7568 25.2747 87.5982 25.2C87.4488 25.1253 87.2948 25.0693 87.1362 25.032L85.9462 24.696C85.2928 24.5093 84.8028 24.2293 84.4762 23.856C84.1588 23.4733 84.0002 23.03 84.0002 22.526C84.0002 22.0687 84.1168 21.672 84.3502 21.336C84.5835 20.9907 84.9055 20.7247 85.3162 20.538C85.7268 20.3513 86.1888 20.258 86.7022 20.258C87.3928 20.258 88.0088 20.4307 88.5502 20.776C89.0915 21.112 89.4742 21.5833 89.6982 22.19L88.4802 22.764C88.3308 22.4 88.0928 22.1107 87.7662 21.896C87.4488 21.6813 87.0895 21.574 86.6882 21.574C86.3428 21.574 86.0675 21.658 85.8622 21.826C85.6568 21.9847 85.5542 22.1947 85.5542 22.456C85.5542 22.6333 85.6008 22.7827 85.6942 22.904C85.7875 23.016 85.9088 23.1093 86.0582 23.184C86.2075 23.2493 86.3615 23.3053 86.5202 23.352L87.7522 23.716C88.3775 23.8933 88.8582 24.1733 89.1942 24.556C89.5302 24.9293 89.6982 25.3773 89.6982 25.9C89.6982 26.348 89.5768 26.7447 89.3342 27.09C89.1008 27.426 88.7742 27.692 88.3542 27.888C87.9342 28.0747 87.4442 28.168 86.8842 28.168ZM94.0482 28.168C93.2736 28.168 92.5922 27.9767 92.0042 27.594C91.4256 27.2113 91.0196 26.698 90.7862 26.054L92.0042 25.48C92.2096 25.9093 92.4896 26.25 92.8442 26.502C93.2082 26.754 93.6096 26.88 94.0482 26.88C94.4216 26.88 94.7249 26.796 94.9582 26.628C95.1916 26.46 95.3082 26.2313 95.3082 25.942C95.3082 25.7553 95.2569 25.606 95.1542 25.494C95.0516 25.3727 94.9209 25.2747 94.7622 25.2C94.6129 25.1253 94.4589 25.0693 94.3002 25.032L93.1102 24.696C92.4569 24.5093 91.9669 24.2293 91.6402 23.856C91.3229 23.4733 91.1642 23.03 91.1642 22.526C91.1642 22.0687 91.2809 21.672 91.5142 21.336C91.7476 20.9907 92.0696 20.7247 92.4802 20.538C92.8909 20.3513 93.3529 20.258 93.8662 20.258C94.5569 20.258 95.1729 20.4307 95.7142 20.776C96.2556 21.112 96.6382 21.5833 96.8622 22.19L95.6442 22.764C95.4949 22.4 95.2569 22.1107 94.9302 21.896C94.6129 21.6813 94.2536 21.574 93.8522 21.574C93.5069 21.574 93.2316 21.658 93.0262 21.826C92.8209 21.9847 92.7182 22.1947 92.7182 22.456C92.7182 22.6333 92.7649 22.7827 92.8582 22.904C92.9516 23.016 93.0729 23.1093 93.2222 23.184C93.3716 23.2493 93.5256 23.3053 93.6842 23.352L94.9162 23.716C95.5416 23.8933 96.0222 24.1733 96.3582 24.556C96.6942 24.9293 96.8622 25.3773 96.8622 25.9C96.8622 26.348 96.7409 26.7447 96.4982 27.09C96.2649 27.426 95.9382 27.692 95.5182 27.888C95.0982 28.0747 94.6082 28.168 94.0482 28.168ZM100.68 28.168C100.167 28.168 99.7143 28.0793 99.3223 27.902C98.9396 27.7153 98.6409 27.4633 98.4263 27.146C98.2116 26.8193 98.1043 26.4367 98.1043 25.998C98.1043 25.5873 98.1929 25.2187 98.3703 24.892C98.5569 24.5653 98.8416 24.29 99.2243 24.066C99.6069 23.842 100.088 23.6833 100.666 23.59L103.298 23.156V24.402L100.974 24.808C100.554 24.8827 100.246 25.018 100.05 25.214C99.8543 25.4007 99.7563 25.6433 99.7563 25.942C99.7563 26.2313 99.8636 26.4693 100.078 26.656C100.302 26.8333 100.587 26.922 100.932 26.922C101.362 26.922 101.735 26.8287 102.052 26.642C102.379 26.4553 102.631 26.208 102.808 25.9C102.986 25.5827 103.074 25.2327 103.074 24.85V22.904C103.074 22.5307 102.934 22.2273 102.654 21.994C102.384 21.7513 102.02 21.63 101.562 21.63C101.142 21.63 100.774 21.742 100.456 21.966C100.148 22.1807 99.9196 22.4607 99.7703 22.806L98.4543 22.148C98.5943 21.7747 98.8229 21.448 99.1403 21.168C99.4576 20.8787 99.8263 20.6547 100.246 20.496C100.676 20.3373 101.128 20.258 101.604 20.258C102.202 20.258 102.729 20.37 103.186 20.594C103.653 20.818 104.012 21.1307 104.264 21.532C104.526 21.924 104.656 22.3813 104.656 22.904V28H103.144V26.628L103.466 26.67C103.289 26.978 103.06 27.244 102.78 27.468C102.51 27.692 102.197 27.8647 101.842 27.986C101.497 28.1073 101.11 28.168 100.68 28.168ZM110.16 31.08C109.609 31.08 109.101 30.9913 108.634 30.814C108.167 30.6367 107.766 30.3893 107.43 30.072C107.094 29.764 106.842 29.4 106.674 28.98L108.13 28.378C108.261 28.7327 108.499 29.0267 108.844 29.26C109.199 29.4933 109.633 29.61 110.146 29.61C110.547 29.61 110.907 29.5307 111.224 29.372C111.541 29.2227 111.793 28.9987 111.98 28.7C112.167 28.4107 112.26 28.0607 112.26 27.65V25.942L112.54 26.264C112.279 26.7493 111.915 27.118 111.448 27.37C110.991 27.622 110.473 27.748 109.894 27.748C109.194 27.748 108.564 27.5847 108.004 27.258C107.444 26.9313 107.001 26.4833 106.674 25.914C106.357 25.3447 106.198 24.7053 106.198 23.996C106.198 23.2773 106.357 22.638 106.674 22.078C107.001 21.518 107.439 21.0747 107.99 20.748C108.541 20.4213 109.171 20.258 109.88 20.258C110.459 20.258 110.972 20.384 111.42 20.636C111.877 20.8787 112.251 21.2333 112.54 21.7L112.33 22.092V20.426H113.828V27.65C113.828 28.3033 113.669 28.8867 113.352 29.4C113.044 29.9227 112.615 30.3333 112.064 30.632C111.513 30.9307 110.879 31.08 110.16 31.08ZM110.076 26.278C110.496 26.278 110.869 26.18 111.196 25.984C111.523 25.7787 111.779 25.508 111.966 25.172C112.162 24.8267 112.26 24.4393 112.26 24.01C112.26 23.5807 112.162 23.1933 111.966 22.848C111.77 22.5027 111.509 22.232 111.182 22.036C110.855 21.8307 110.487 21.728 110.076 21.728C109.647 21.728 109.264 21.8307 108.928 22.036C108.592 22.232 108.326 22.5027 108.13 22.848C107.943 23.184 107.85 23.5713 107.85 24.01C107.85 24.43 107.943 24.8127 108.13 25.158C108.326 25.5033 108.592 25.7787 108.928 25.984C109.264 26.18 109.647 26.278 110.076 26.278ZM119.236 28.168C118.48 28.168 117.808 27.9953 117.22 27.65C116.641 27.2953 116.189 26.8193 115.862 26.222C115.535 25.6153 115.372 24.9387 115.372 24.192C115.372 23.4267 115.535 22.75 115.862 22.162C116.198 21.574 116.646 21.112 117.206 20.776C117.766 20.4307 118.401 20.258 119.11 20.258C119.679 20.258 120.188 20.356 120.636 20.552C121.084 20.748 121.462 21.0187 121.77 21.364C122.078 21.7 122.311 22.0873 122.47 22.526C122.638 22.9647 122.722 23.4313 122.722 23.926C122.722 24.0473 122.717 24.1733 122.708 24.304C122.699 24.4347 122.68 24.556 122.652 24.668H116.618V23.408H121.756L121 23.982C121.093 23.5247 121.061 23.1187 120.902 22.764C120.753 22.4 120.519 22.1153 120.202 21.91C119.894 21.6953 119.53 21.588 119.11 21.588C118.69 21.588 118.317 21.6953 117.99 21.91C117.663 22.1153 117.411 22.414 117.234 22.806C117.057 23.1887 116.987 23.6553 117.024 24.206C116.977 24.7193 117.047 25.1673 117.234 25.55C117.43 25.9327 117.701 26.2313 118.046 26.446C118.401 26.6607 118.802 26.768 119.25 26.768C119.707 26.768 120.095 26.6653 120.412 26.46C120.739 26.2547 120.995 25.9887 121.182 25.662L122.47 26.292C122.321 26.6467 122.087 26.9687 121.77 27.258C121.462 27.538 121.089 27.762 120.65 27.93C120.221 28.0887 119.749 28.168 119.236 28.168Z" fill="#0E1114" class="dark:fill-white"/>
</svg>
