<svg width="32" height="32" viewBox="0 0 32 32" fill="none" xmlns="http://www.w3.org/2000/svg">
<path fill-rule="evenodd" clip-rule="evenodd" d="M16.6745 5.0468C14.0033 4.87939 11.3628 5.69277 9.24874 7.33424C7.1347 8.97571 5.6925 11.3324 5.1929 13.9618C4.6933 16.5913 5.17065 19.3127 6.53534 21.6151C6.67509 21.8509 6.71194 22.1337 6.63727 22.3974L5.46607 26.534L9.60267 25.3628L9.8751 26.325L10.385 25.4647C12.6874 26.8294 15.4088 27.3068 18.0382 26.8072C20.6677 26.3076 23.0244 24.8654 24.6658 22.7513C26.3073 20.6373 27.1207 17.9968 26.9533 15.3255C26.7859 12.6543 25.6492 10.136 23.7566 8.24345C21.8641 6.35089 19.3458 5.2142 16.6745 5.0468ZM9.74421 27.4013C12.3827 28.8478 15.4466 29.3354 18.4116 28.772C21.5196 28.1815 24.3053 26.4768 26.2455 23.9779C28.1858 21.4791 29.1472 18.3579 28.9494 15.2005C28.7515 12.043 27.4079 9.06629 25.1708 6.82923C22.9338 4.59218 19.9571 3.24859 16.7996 3.05071C13.6421 2.85283 10.521 3.81427 8.02216 5.75453C5.52331 7.69478 3.8186 10.4804 3.22806 13.5885C2.6647 16.5535 3.15225 19.6173 4.59873 22.2559L3.53889 25.9991C3.44016 26.3399 3.43445 26.7009 3.52239 27.0447C3.61075 27.3901 3.7904 27.7054 4.04251 27.9576C4.29463 28.2097 4.60993 28.3893 4.95535 28.4777C5.29915 28.5656 5.66019 28.5599 6.00099 28.4612L9.74421 27.4013Z" fill="#616C76"/>
<path d="M16 17.5C16.8284 17.5 17.5 16.8284 17.5 16C17.5 15.1716 16.8284 14.5 16 14.5C15.1716 14.5 14.5 15.1716 14.5 16C14.5 16.8284 15.1716 17.5 16 17.5Z" fill="#616C76"/>
<path d="M10 17.5C10.8284 17.5 11.5 16.8284 11.5 16C11.5 15.1716 10.8284 14.5 10 14.5C9.17157 14.5 8.5 15.1716 8.5 16C8.5 16.8284 9.17157 17.5 10 17.5Z" fill="#616C76"/>
<path d="M22 17.5C22.8284 17.5 23.5 16.8284 23.5 16C23.5 15.1716 22.8284 14.5 22 14.5C21.1716 14.5 20.5 15.1716 20.5 16C20.5 16.8284 21.1716 17.5 22 17.5Z" fill="#616C76"/>
</svg>
