<svg width="32" height="32" viewBox="0 0 32 32" fill="none" xmlns="http://www.w3.org/2000/svg">
<path fill-rule="evenodd" clip-rule="evenodd" d="M17.5648 8.7712C18.1592 8.23258 18.938 7.94318 19.74 7.96292C20.5419 7.98267 21.3055 8.31004 21.8727 8.87727C22.44 9.44449 22.7673 10.2081 22.7871 11.0101C22.8068 11.812 22.5174 12.5908 21.9788 13.1853C21.9729 13.1918 21.9669 13.1982 21.9607 13.2044L14.2029 21.0716C14.1946 21.08 14.1862 21.0881 14.1775 21.0959C13.8208 21.4191 13.3535 21.5928 12.8724 21.5809C12.3912 21.5691 11.933 21.3726 11.5927 21.0323C11.2524 20.692 11.0559 20.2338 11.0441 19.7526C11.0323 19.2715 11.2059 18.8042 11.5291 18.4475C11.5348 18.4412 11.5406 18.435 11.5466 18.4289L18.0544 11.8117C18.2965 11.5656 18.6922 11.5623 18.9383 11.8044C19.1844 12.0464 19.1877 12.4421 18.9456 12.6882L12.4483 19.2947C12.3451 19.4126 12.2899 19.565 12.2937 19.7219C12.2977 19.8823 12.3631 20.035 12.4766 20.1484C12.59 20.2619 12.7428 20.3273 12.9031 20.3313C13.0587 20.3351 13.2099 20.2808 13.3273 20.1793L21.0607 12.3368C21.3786 11.9813 21.5492 11.5179 21.5375 11.0408C21.5256 10.5597 21.3292 10.1015 20.9889 9.76115C20.6485 9.42082 20.1904 9.22439 19.7092 9.21254C19.2335 9.20083 18.7713 9.37043 18.4162 9.68661L10.6685 17.5435C10.0833 18.1287 9.75458 18.9224 9.75458 19.75C9.75458 20.5776 10.0833 21.3713 10.6685 21.9565C11.2537 22.5417 12.0474 22.8704 12.875 22.8704C13.7026 22.8704 14.4963 22.5417 15.0815 21.9565L21.4961 15.5575C21.7405 15.3137 22.1362 15.3142 22.38 15.5586C22.6238 15.803 22.6233 16.1987 22.3789 16.4425L15.9654 22.8404C15.1458 23.66 14.0342 24.1204 12.875 24.1204C11.7159 24.1204 10.6043 23.66 9.78465 22.8404C8.96504 22.0207 8.50458 20.9091 8.50458 19.75C8.50458 18.5916 8.96443 17.4807 9.78304 16.6612L17.5394 8.79552C17.5476 8.78718 17.5561 8.77907 17.5648 8.7712Z" fill="#0E1114"/>
</svg>
