<svg width="20" height="20" viewBox="0 0 20 20" fill="none" xmlns="http://www.w3.org/2000/svg">
<path fill-rule="evenodd" clip-rule="evenodd" d="M10 2.5C8.61929 2.5 7.5 3.61929 7.5 5V10C7.5 11.3807 8.61929 12.5 10 12.5C11.3807 12.5 12.5 11.3807 12.5 10V5C12.5 3.61929 11.3807 2.5 10 2.5ZM6.25 5C6.25 2.92893 7.92893 1.25 10 1.25C12.0711 1.25 13.75 2.92893 13.75 5V10C13.75 12.0711 12.0711 13.75 10 13.75C7.92893 13.75 6.25 12.0711 6.25 10V5Z" fill="#0E1114"/>
<path fill-rule="evenodd" clip-rule="evenodd" d="M10 15C10.3452 15 10.625 15.2798 10.625 15.625V18.125C10.625 18.4702 10.3452 18.75 10 18.75C9.65482 18.75 9.375 18.4702 9.375 18.125V15.625C9.375 15.2798 9.65482 15 10 15Z" fill="#0E1114"/>
<path fill-rule="evenodd" clip-rule="evenodd" d="M4.33271 10.0043C4.67549 9.96374 4.98627 10.2087 5.02685 10.5515C5.17101 11.7692 5.75693 12.8917 6.67354 13.7062C7.59015 14.5207 8.77374 14.9706 9.99994 14.9706C11.2261 14.9706 12.4097 14.5207 13.3263 13.7062C14.2429 12.8917 14.8289 11.7692 14.973 10.5515C15.0136 10.2087 15.3244 9.96374 15.6672 10.0043C16.01 10.0449 16.2549 10.3557 16.2144 10.6985C16.0342 12.2201 15.302 13.6228 14.1566 14.6406C13.0112 15.6584 11.5322 16.2206 9.99994 16.2206C8.46766 16.2206 6.98864 15.6584 5.84324 14.6406C4.69783 13.6228 3.96566 12.2201 3.78552 10.6985C3.74494 10.3557 3.98993 10.0449 4.33271 10.0043Z" fill="#0E1114"/>
</svg>
