<svg width="170" height="170" viewBox="0 0 170 170" fill="none" xmlns="http://www.w3.org/2000/svg">
<path d="M94.912 46.8951L64.6792 19.9105L165.228 19.9078C167.863 19.9078 170 22.0443 170 24.6798V42.1206C170 44.756 167.863 46.8924 165.228 46.8925L94.912 46.8951Z" fill="#246DD3"/>
<path d="M121.158 101.849V74.8646H155.348C157.983 74.8646 160.12 77.001 160.12 79.6365V97.0773C160.12 99.7127 157.983 101.849 155.348 101.849H121.158Z" fill="#246DD3"/>
<path d="M64.6792 157.788L94.912 130.803H165.228C167.863 130.803 170 132.94 170 135.575V153.016C170 155.652 167.863 157.788 165.228 157.788H64.6792Z" fill="#246DD3"/>
<path d="M145.455 88.3023C145.455 128.34 112.894 160.797 72.7277 160.797C32.5613 160.797 0 128.34 0 88.3023C0 48.2643 32.5613 15.8071 72.7277 15.8071C112.894 15.8071 145.455 48.2643 145.455 88.3023ZM27.782 88.3023C27.782 113.046 47.9048 133.104 72.7277 133.104C97.5505 133.104 117.673 113.046 117.673 88.3023C117.673 63.5588 97.5505 43.5003 72.7277 43.5003C47.9048 43.5003 27.782 63.5588 27.782 88.3023Z" fill="#2595FF"/>
</svg>
